# xmcd
#
# Track frame offsets: 
#        150
#        40024
#        66716
#        110366
#        138170
#        160397
#        183277
#        202891
#        225347
#        278186
#        302910
#        324954
#
# Disc length: 4746 seconds
#
# Revision: 0
# Processed by: cddbd v1.5.2PL0 Copyright (c) Steve Scherf et al.
# Submitted via: ExactAudioCopyFreeDBPlugin 1.0
#
DISCID=a012880c
DTITLE=Albert King - Live in the '70s
DYEAR=2014
DGENRE=Blues
TTITLE0=Blues Power
TTITLE1=Crosscut Saw
TTITLE2=Got To Be Some Changes Made
TTITLE3=Personal Manager
TTITLE4=Angel Of Mercy
TTITLE5=Matchbox Blues
TTITLE6=Oh Pretty Woman
TTITLE7=Breaking Up Somebody's Home
TTITLE8=Stormy Monday
TTITLE9=Born Under A Bad Sign
TTITLE10=I Believe To My Soul
TTITLE11=I'll Play The Blues For You
EXTD=
EXTT0=
EXTT1=
EXTT2=
EXTT3=
EXTT4=
EXTT5=
EXTT6=
EXTT7=
EXTT8=
EXTT9=
EXTT10=
EXTT11=
PLAYORDER=
